<svg width="23" height="23" viewBox="0 0 23 23" fill="none" xmlns="http://www.w3.org/2000/svg">
<g clip-path="url(#clip0_1_9)">
<path d="M5.22649 7.55444H0.292454V22.5897H5.22649V7.55444Z" fill="black"/>
<path d="M21.4285 8.92763C20.3958 7.78718 19.0188 7.20532 17.3206 7.20532C16.701 7.20532 16.1273 7.27515 15.5994 7.43807C15.0946 7.60099 14.6585 7.81046 14.2913 8.08975C13.9471 8.36904 13.6488 8.62506 13.4422 8.88108C13.2357 9.11382 13.0521 9.36984 12.8685 9.67241V7.53116H7.95742L7.98037 8.25267C7.98037 8.74143 8.00332 10.231 8.00332 12.7446C8.00332 15.2583 8.00332 18.5167 7.98037 22.5664H12.8915V14.1876C12.8915 13.6756 12.9374 13.2567 13.0521 12.9541C13.2586 12.4421 13.5799 11.9998 13.993 11.6507C14.4061 11.3016 14.9339 11.1387 15.5765 11.1387C16.4256 11.1387 17.0682 11.4413 17.4583 12.0464C17.8714 12.6515 18.055 13.4894 18.055 14.5368V22.5664H22.9661V13.9549C22.989 11.7438 22.4841 10.0681 21.4285 8.92763Z" fill="black"/>
<path d="M2.7939 0.316162C1.96774 0.316162 1.30222 0.57218 0.797341 1.06094C0.269514 1.5497 0.0170746 2.15484 0.0170746 2.89962C0.0170746 3.6444 0.269514 4.24953 0.774392 4.76157C1.27927 5.25033 1.92184 5.50635 2.74801 5.50635H2.77095C3.62007 5.50635 4.28559 5.25033 4.79047 4.76157C5.29534 4.27281 5.54778 3.6444 5.54778 2.89962C5.54778 2.15484 5.2724 1.52643 4.79047 1.03767C4.28559 0.57218 3.62007 0.316162 2.7939 0.316162Z" fill="black"/>
</g>
<defs>
<clipPath id="clip0_1_9">
<rect width="22.972" height="22.2736" fill="white" transform="translate(0.0170746 0.316162)"/>
</clipPath>
</defs>
</svg>
