<svg width="23" height="23" viewBox="0 0 23 23" fill="none" xmlns="http://www.w3.org/2000/svg">
<g clip-path="url(#clip0_1_1002)">
<path d="M15.9976 0.328369H6.14871C2.80073 0.328369 0.086586 3.07962 0.086586 6.47337V16.4569C0.086586 19.8507 2.80073 22.6019 6.14871 22.6019H15.9976C19.3456 22.6019 22.0598 19.8507 22.0598 16.4569V6.47337C22.0598 3.07962 19.3456 0.328369 15.9976 0.328369ZM20.1095 16.4569C20.1095 18.7634 18.2567 20.625 15.9976 20.625H6.14871C3.87338 20.625 2.03687 18.7469 2.03687 16.4569V6.47337C2.03687 4.18341 3.88964 2.30531 6.14871 2.30531H15.9976C18.273 2.30531 20.1095 4.18341 20.1095 6.47337V16.4569Z" fill="black"/>
<path d="M11.0732 5.73193C7.95271 5.73193 5.40109 8.30196 5.40109 11.4651C5.40109 14.6282 7.93646 17.2147 11.0732 17.2147C14.1936 17.2147 16.7452 14.6447 16.7452 11.4651C16.7452 8.30196 14.1936 5.73193 11.0732 5.73193ZM11.0732 15.2377C9.02537 15.2377 7.35137 13.5573 7.35137 11.4815C7.36763 9.38928 9.02537 7.70888 11.0732 7.70888C13.121 7.70888 14.7949 9.38928 14.7949 11.4651C14.7949 13.5409 13.121 15.2377 11.0732 15.2377Z" fill="black"/>
<path d="M16.9728 4.05151C16.599 4.05151 16.2252 4.19978 15.9651 4.47985C15.7051 4.74344 15.5426 5.12236 15.5426 5.50127C15.5426 5.88019 15.6888 6.2591 15.9651 6.5227C16.2252 6.78629 16.599 6.95103 16.9728 6.95103C17.3466 6.95103 17.7204 6.80276 17.9804 6.5227C18.2405 6.2591 18.403 5.88019 18.403 5.50127C18.403 5.12236 18.2567 4.74344 17.9804 4.47985C17.7204 4.19978 17.3628 4.05151 16.9728 4.05151Z" fill="black"/>
</g>
<defs>
<clipPath id="clip0_1_1002">
<rect width="21.9732" height="22.2736" fill="white" transform="translate(0.086586 0.328369)"/>
</clipPath>
</defs>
</svg>
