<svg width="26" height="21" viewBox="0 0 26 21" fill="none" xmlns="http://www.w3.org/2000/svg">
<path d="M25.1832 2.74469C24.2106 3.15743 23.2138 3.4245 22.2413 3.5459C23.3597 2.89036 24.0891 1.94348 24.5024 0.729529C23.4813 1.31223 22.3872 1.72497 21.2445 1.94348C20.2233 0.875203 18.9833 0.341064 17.5002 0.341064C16.0901 0.341064 14.8744 0.850924 13.8776 1.84636C12.8808 2.8418 12.3702 4.05576 12.3702 5.46394C12.3702 5.8524 12.4188 6.24087 12.4918 6.62933C10.4008 6.53222 8.43147 5.99808 6.60799 5.0512C4.78451 4.10431 3.22848 2.8418 1.93989 1.28795C1.47794 2.08915 1.23481 2.93892 1.23481 3.86152C1.23481 4.73557 1.42931 5.56105 1.84263 6.28943C2.25596 7.04208 2.81516 7.64905 3.49592 8.11035C2.66928 8.08607 1.89126 7.86756 1.18618 7.45482V7.52766C1.18618 8.76589 1.57519 9.83416 2.35321 10.781C3.13123 11.7036 4.10375 12.3106 5.29509 12.5534C4.85745 12.6748 4.39551 12.7234 3.95787 12.7234C3.66611 12.7234 3.35004 12.6991 2.98535 12.6505C3.30142 13.6702 3.90924 14.52 4.78451 15.1755C5.65978 15.8311 6.65662 16.171 7.77502 16.1953C5.92723 17.652 3.78768 18.3804 1.42931 18.3804C0.967364 18.3804 0.554042 18.3561 0.189346 18.3075C2.57203 19.8371 5.19784 20.5898 8.04246 20.5898C9.86594 20.5898 11.5679 20.2984 13.1725 19.74C14.7772 19.1573 16.1387 18.4047 17.2571 17.4335C18.3755 16.4623 19.3724 15.3455 20.1747 14.1073C21.0013 12.8448 21.6092 11.5337 21.9982 10.1741C22.3872 8.81444 22.606 7.43054 22.606 6.07091C22.606 5.77957 22.606 5.56105 22.5817 5.41538C23.6271 4.66273 24.4781 3.78869 25.1832 2.74469Z" fill="black"/>
</svg>
