<svg width="29" height="21" viewBox="0 0 29 21" fill="none" xmlns="http://www.w3.org/2000/svg">
<g clip-path="url(#clip0_1_6)">
<path d="M28.8978 8.08607C28.8978 7.52766 28.8499 6.79928 28.7541 5.92524C28.6823 5.0512 28.5625 4.27427 28.4188 3.59445C28.2511 2.81752 27.8919 2.18627 27.341 1.65213C26.7901 1.11799 26.1434 0.826645 25.4009 0.729529C23.1016 0.46246 19.6046 0.341064 14.9341 0.341064C10.2635 0.341064 6.76658 0.46246 4.46723 0.729529C3.72473 0.826645 3.07804 1.11799 2.52715 1.65213C1.97627 2.18627 1.61699 2.81752 1.44933 3.59445C1.28167 4.27427 1.18587 5.0512 1.09006 5.92524C1.0182 6.79928 0.970302 7.52766 0.94635 8.08607C0.94635 8.66877 0.94635 9.4457 0.94635 10.4654C0.94635 11.4851 0.94635 12.2621 0.970302 12.8448C0.970302 13.4032 1.0182 14.1315 1.11401 15.0056C1.16191 15.8796 1.28167 16.6566 1.42538 17.3364C1.59304 18.1133 1.95232 18.7446 2.5032 19.2787C3.05409 19.8128 3.70078 20.1042 4.44328 20.2013C6.74263 20.4684 10.2396 20.5898 14.9101 20.5898C19.5807 20.5898 23.0776 20.4684 25.377 20.2013C26.1195 20.1285 26.7661 19.8128 27.317 19.2787C27.8679 18.7446 28.2272 18.1133 28.3948 17.3364C28.5625 16.6566 28.6583 15.8796 28.7541 15.0056C28.826 14.1315 28.8739 13.4032 28.8978 12.8448C28.8978 12.2863 28.9218 11.4851 28.9218 10.4654C28.9218 9.4457 28.9218 8.66877 28.8978 8.08607ZM20.4669 11.3152L12.4671 16.3895C12.3233 16.4866 12.1557 16.5595 11.9401 16.5595C11.7725 16.5595 11.6288 16.5109 11.4611 16.4381C11.1258 16.2438 10.9342 15.9525 10.9342 15.5397V5.41538C10.9342 5.00264 11.1018 4.71129 11.4611 4.51706C11.8204 4.32282 12.1557 4.3471 12.4671 4.54134L16.467 7.07849L20.4669 9.61565C20.7783 9.7856 20.9459 10.077 20.9459 10.4654C20.922 10.8539 20.7783 11.1452 20.4669 11.3152Z" fill="black"/>
</g>
<defs>
<clipPath id="clip0_1_6">
<rect width="27.9754" height="20.2487" fill="white" transform="translate(0.94635 0.341064)"/>
</clipPath>
</defs>
</svg>
