<svg width="21" height="21" viewBox="0 0 21 21" fill="none" xmlns="http://www.w3.org/2000/svg">
<path d="M12.951 19.5325L12.8726 13.0237C12.9067 12.7748 13.1141 12.5478 13.3854 12.4976L20.1823 12.4266C20.4422 12.4594 20.6496 12.2323 20.6951 11.9004L20.6637 8.26722C20.6978 8.01832 20.4606 7.81959 20.114 7.77587L13.317 7.84688C13.0571 7.81408 12.8199 7.61536 12.7673 7.35553L12.6889 0.846713C12.723 0.597807 12.4858 0.399078 12.1392 0.355357L8.34514 0.38317C8.0852 0.350379 7.87782 0.577422 7.83237 0.909296L7.91076 7.41811C7.87668 7.66701 7.6693 7.89406 7.39799 7.94423L0.601051 8.01526C0.341105 7.98247 0.133725 8.20951 0.0882818 8.54138L0.119638 12.1746C0.0855556 12.4235 0.322791 12.6222 0.669386 12.666L7.46632 12.5949C7.72627 12.6277 7.96351 12.8265 8.01607 13.0863L8.09441 19.5951C8.06032 19.844 8.29756 20.0427 8.64415 20.0865L12.4382 20.0587C12.7095 20.0085 12.9169 19.7814 12.951 19.5325Z" fill="#FDD08D"/>
</svg>
